<?xml version="1.0" ?><!-- Uploaded to: SVG Repo, www.svgrepo.com, Generator: SVG Repo Mixer Tools -->
<svg width="800px" height="800px" viewBox="0 0 64 64" data-name="Layer 1" id="Layer_1" xmlns="http://www.w3.org/2000/svg"><defs><style>
      .cls-1 {
        fill: #f5dd90;
      }

      .cls-2 {
        fill: #a3cef1;
      }

      .cls-3 {
        fill: #6096ba;
      }

      .cls-4 {
        fill: #274c77;
      }
    </style></defs><path class="cls-4" d="M32,62h-3l-2-2H10V30h4v24s12.15-3,18,8Z"/><path class="cls-4" d="M50,54V30h4v30h-17s-2,2-2,2h-3c5.85-11,18-8,18-8Z"/><path class="cls-3" d="M32,62c-5.85-11-18-8-18-8V27l6-2v25c6.63,0,12,5.37,12,12Z"/><path class="cls-3" d="M44,25l6,2v27s-12.15-3-18,8c0-6.63,5.37-12,12-12V25Z"/><path class="cls-2" d="M32,36c0-6.63-5.37-12-12-12v26c6.63,0,12,5.37,12,12,0-6.63,5.37-12,12-12V24c-6.63,0-12,5.37-12,12Z"/><circle class="cls-1" cx="32" cy="6" r="3"/><circle class="cls-1" cx="19" cy="12" r="3"/><circle class="cls-1" cx="45" cy="12" r="3"/><circle class="cls-1" cx="32" cy="19" r="4"/><path class="cls-3" d="M47.95,14.68c.65-.71,1.05-1.64,1.05-2.68,0-2.21-1.79-4-4-4-.8,0-1.53,.24-2.16,.64-2.05-1.55-4.41-2.64-6.9-3.19-.27-1.94-1.93-3.45-3.94-3.45s-3.67,1.51-3.94,3.45c-2.49,.55-4.84,1.64-6.9,3.19-.62-.4-1.36-.64-2.16-.64-2.21,0-4,1.79-4,4,0,1.03,.4,1.97,1.05,2.68-1.34,2.55-2.05,5.41-2.05,8.32,0,1.59,.21,3.18,.62,4.73l1.93-.52c-.37-1.38-.56-2.79-.56-4.21,0-2.53,.6-5,1.73-7.23,.4,.14,.82,.23,1.27,.23,1.46,0,2.73-.8,3.43-1.97l4.62,5.39c.22,2.56,2.34,4.58,4.96,4.58s4.74-2.02,4.96-4.58l4.62-5.39c.7,1.17,1.97,1.97,3.43,1.97,.45,0,.87-.09,1.27-.23,1.13,2.22,1.73,4.7,1.73,7.23,0,1.42-.19,2.83-.56,4.21l1.93,.52c.41-1.55,.62-3.14,.62-4.73,0-2.91-.71-5.77-2.05-8.32Zm-28.95-.68c-1.1,0-2-.9-2-2s.9-2,2-2,2,.9,2,2-.9,2-2,2Zm16.72-6.56c2.07,.49,4.04,1.4,5.77,2.68-.24,.45-.41,.95-.46,1.48l-4.52,5.27c-.66-1.4-1.95-2.45-3.51-2.77v-4.24c1.25-.33,2.26-1.23,2.72-2.42Zm-3.72-3.44c1.1,0,2,.9,2,2s-.9,2-2,2-2-.9-2-2,.9-2,2-2Zm-3.72,3.44c.46,1.19,1.47,2.09,2.72,2.42v4.24c-1.56,.32-2.84,1.37-3.51,2.77l-4.52-5.27c-.06-.53-.22-1.03-.46-1.48,1.73-1.28,3.7-2.19,5.77-2.68Zm3.72,14.56c-1.65,0-3-1.35-3-3s1.35-3,3-3,3,1.35,3,3-1.35,3-3,3Zm13-8c-1.1,0-2-.9-2-2s.9-2,2-2,2,.9,2,2-.9,2-2,2Z"/></svg>