<?xml version="1.0" encoding="iso-8859-1"?>
<!-- Uploaded to: SVG Repo, www.svgrepo.com, Generator: SVG Repo Mixer Tools -->
<svg version="1.1" id="Layer_1" xmlns="http://www.w3.org/2000/svg" xmlns:xlink="http://www.w3.org/1999/xlink" 
	 viewBox="0 0 512.002 512.002" xml:space="preserve">
<g>
	<rect x="134.465" y="106.398" style="fill:#C9CFF2;" width="32.758" height="65.769"/>
	<rect x="198.802" y="106.398" style="fill:#C9CFF2;" width="32.758" height="65.769"/>
	<rect x="263.15" y="106.398" style="fill:#C9CFF2;" width="32.758" height="65.769"/>
</g>
<path style="fill:#4D4E5C;" d="M350.179,33.893c-3.333-37.877-35.963-26.862-60.295-13.008
	c-16.497,9.392-26.734,26.86-26.734,45.843v40.731h32.758V80.329C317.931,81.348,353.938,76.611,350.179,33.893z"/>
<path style="fill:#626375;" d="M285.837,33.893c-3.333-37.877-35.963-26.862-60.295-13.008
	c-16.497,9.392-26.734,26.86-26.734,45.843v40.731h32.758V80.329C253.588,81.348,289.596,76.611,285.837,33.893z"/>
<path style="fill:#797A91;" d="M221.493,33.893C218.16-3.985,185.53,7.031,161.198,20.885c-16.497,9.392-26.734,26.86-26.734,45.843
	v40.731h32.758V80.329C189.245,81.348,225.252,76.611,221.493,33.893z"/>
<path style="fill:#626375;" d="M298.94,447.984c-13.226,0-23.947-10.721-23.947-23.947c0-13.226,10.721-23.947,23.947-23.947
	c38.532,0,69.88-31.348,69.88-69.88v-53.944c0-14.485-7.068-27.161-19.392-34.774c-12.324-7.614-26.82-8.262-39.774-1.782
	c-11.83,5.919-26.214,1.126-32.13-10.701c-5.919-11.828-1.127-26.213,10.702-32.131c27.718-13.869,60.009-12.423,86.378,3.869
	c26.368,16.292,42.11,44.523,42.11,75.519v53.944C416.714,395.152,363.882,447.984,298.94,447.984z"/>
<g style="opacity:0.1;">
	<path d="M342.624,384.698c-11.974,9.619-27.163,15.394-43.682,15.394c-13.226,0-23.947,10.721-23.947,23.947
		c0,13.226,10.721,23.947,23.947,23.947c15.427,0,30.168-2.986,43.682-8.404V384.698z"/>
	<path d="M309.656,239.711c10.636-5.322,22.309-5.827,32.968-1.627v-49.435c-18.221-3.082-37.19-0.38-54.398,8.229
		c-11.828,5.919-16.619,20.304-10.702,32.131S297.825,245.629,309.656,239.711z"/>
</g>
<path style="fill:#FF6465;" d="M114.481,148.966v298.009c0,31.504,25.539,57.042,57.042,57.042h87.45
	c31.504,0,57.042-25.539,57.042-57.042V148.966H114.481z"/>
<path style="opacity:0.1;enable-background:new    ;" d="M114.481,446.975c0,5.154,0.695,10.145,1.977,14.894
	c6.256,3.493,12.973,6.307,20.08,8.297c8.293,2.322,16.813,3.499,25.322,3.5c0.001,0,0.002,0,0.004,0
	c24.51,0,47.723-9.527,65.364-26.825c18.022-17.672,27.946-41.344,27.946-66.656V202.323l-140.693-39.394v284.047H114.481z"/>
<path style="fill:#FF8080;" d="M95.288,185.187v195.512c0,29.732,19.793,55.828,48.424,63.845l0,0
	c42.617,11.933,84.854-20.103,84.854-64.358V222.504L95.288,185.187z"/>
<path style="fill:#FFA6A6;" d="M175.641,444.544L175.641,444.544c-28.631-8.016-48.424-34.113-48.424-63.845V194.127l-31.929-8.94
	v195.512c0,29.732,19.793,55.828,48.424,63.845l0,0c11.669,3.267,23.306,3.232,34.059,0.558
	C177.062,444.928,176.352,444.743,175.641,444.544z"/>
<path d="M308.033,237.155v160.817v48.77v0.233c0,18.62-10.343,35.409-26.994,43.814c-3.936,1.987-5.515,6.788-3.528,10.723
	c1.405,2.782,4.215,4.387,7.132,4.387c1.209,0,2.438-0.277,3.591-0.859c20.094-10.144,33.25-29.51,35.436-51.533
	c27.041-5.424,51.714-19.716,70.039-40.717c19.983-22.902,30.988-52.229,30.988-82.581v-53.944c0-33.782-17.158-64.552-45.898-82.31
	c-15.371-9.496-32.933-14.516-50.789-14.516c-1.335,0-2.674,0.038-4.013,0.095v-30.57c0-4.409-3.574-7.982-7.982-7.982h-12.126
	V88.39c19.078-0.513,34.001-6.1,43.283-16.235c8.709-9.51,12.395-22.618,10.957-38.962C355.589,4.313,337.678,0,327.226,0
	C316.5,0,303.22,4.36,287.744,12.94C280.933,2.075,270.121,0,262.884,0c-10.728,0-24.012,4.363-39.492,12.945
	c-2.528-4.019-5.802-7.149-9.813-9.361c-11.701-6.453-28.505-4.129-49.945,6.901c-3.92,2.017-5.463,6.83-3.446,10.751
	c2.017,3.919,6.83,5.461,10.749,3.445c15.958-8.211,28.364-10.739,34.933-7.117c5.839,3.22,7.139,10.989,7.67,17.029
	c0.891,10.113-0.59,21.41-8.588,28.506c-9.846,8.736-24.891,9.793-37.362,9.257c-4.493-0.193-8.352,3.473-8.352,7.974v19.147
	h-16.794V66.726c0-8.534,2.461-16.872,7.116-24.113c2.384-3.708,1.309-8.647-2.399-11.03c-3.708-2.384-8.647-1.311-11.03,2.398
	c-6.313,9.822-9.65,21.146-9.65,32.746v74.258h-12.001c-4.408,0-7.982,3.573-7.982,7.982v31.07l-9.058-2.536
	c-2.404-0.671-4.986-0.181-6.975,1.327c-1.99,1.509-3.159,3.862-3.159,6.36v195.512c0,18.799,7.17,36.386,19.193,49.73v16.546
	c0,35.854,29.17,65.026,65.025,65.026h81.184c4.408,0,7.982-3.573,7.982-7.982c0-4.409-3.574-7.982-7.982-7.982h-81.184
	c-27.051,0-49.06-22.009-49.06-49.061v-3.142c0,2.675,16.253,7.56,18.495,8.215c34.162,9.998,72.01-6.671,87.843-38.554
	c5.12-10.31,7.747-21.805,7.747-33.308v-51.004c0-4.409-3.574-7.982-7.982-7.982s-7.982,3.573-7.982,7.982v51.004
	c0,18.574-8.488,35.666-23.287,46.89c-14.799,11.225-33.546,14.79-51.432,9.781c-24.826-6.949-42.593-30.394-42.593-56.158V195.711
	l117.313,32.847v68.695c0,4.409,3.574,7.982,7.982,7.982s7.982-3.573,7.982-7.982v-74.749c0-0.447-0.037-0.888-0.11-1.319
	c-0.503-3.013-2.704-5.524-5.721-6.369l-62.786-17.58l-45.469-12.731v-27.557h185.57v31.298V237.155z M323.997,243.557
	c1.352-0.176,2.707-0.284,4.06-0.284c6.018,0,11.796,1.686,17.177,5.011c9.917,6.126,15.605,16.325,15.605,27.983v53.944
	c0,24.842-14.719,46.839-36.841,56.607V243.557H323.997z M323.997,403.933c31.385-10.641,52.805-40.114,52.805-73.723v-53.944
	c0-17.315-8.448-32.464-23.177-41.564c-9.019-5.573-19.397-8.101-29.628-7.219v-31.976c16.28-0.821,32.412,3.382,46.41,12.032
	c23.998,14.827,38.324,40.519,38.324,68.727v53.944c0,26.493-9.607,52.092-27.052,72.085
	c-15.221,17.443-35.442,29.592-57.682,34.812L323.997,403.933L323.997,403.933z M159.24,140.984h-16.794v-25.543h16.794V140.984z
	 M190.824,140.984h-15.62V88.389c5.025-0.136,10.344-0.651,15.62-1.74V140.984z M223.582,140.984h-16.794v-25.543h16.794V140.984z
	 M255.168,140.984h-15.62V88.39c5.578-0.15,10.789-0.746,15.62-1.751V140.984z M269.47,62.524c-2.513,2.501-5.58,4.558-9.205,6.028
	c-7.612,3.085-16.443,3.913-23.645,3.913c-3.73,0-7.6-0.741-10.567,2.09c-1.577,1.507-2.47,3.593-2.47,5.774v19.147h-16.794
	c0,0,0-18.384,0-18.391c0-0.268,3.551-2.088,3.895-2.316c10.667-7.058,16.951-18.238,18.568-30.835
	c0.837-6.519,0.646-13.24-0.434-19.72c0.224-0.133,0.448-0.264,0.673-0.392c13.624-7.758,25.172-11.857,33.394-11.857
	c5.332,0,10.886,1.446,13.59,10.629c0.021,0.082,0.028,0.164,0.051,0.246C279.938,38.717,278.572,53.465,269.47,62.524z
	 M287.926,140.984h-16.794v-25.543h16.794V140.984z M300.963,72.465c-1.532,0-3.109-0.037-4.686-0.111
	c-2.185-0.094-4.304,0.694-5.881,2.2c-1.577,1.507-2.47,3.593-2.47,5.774v19.147h-16.793V81.084
	c11.203-5.941,22.195-17.28,22.916-38.875c0.005-0.151,0.007-0.303,0.012-0.456c0.031-1.143-1.392-13.25-0.899-13.542
	c0.223-0.133,0.448-0.264,0.673-0.392c13.625-7.756,25.172-11.855,33.394-11.855c6.607,0,13.557,2.213,15.001,18.627
	c1.029,11.7-1.268,20.71-6.828,26.78C327.004,70.54,312.041,72.465,300.963,72.465z"/>
</svg>