<?xml version="1.0" encoding="iso-8859-1"?>
<!-- Uploaded to: SVG Repo, www.svgrepo.com, Generator: SVG Repo Mixer Tools -->
<svg height="800px" width="800px" version="1.1" id="Layer_1" xmlns="http://www.w3.org/2000/svg" xmlns:xlink="http://www.w3.org/1999/xlink" 
	 viewBox="0 0 511.999 511.999" xml:space="preserve">
<path style="fill:#7DD2F0;" d="M238.845,181.059c-13.79,0-26.117,6.255-34.307,16.078c-7.827-19.923-27.219-34.034-49.919-34.034
	c-26.479,0-48.461,19.196-52.826,44.428c-5.138-3.138-11.175-4.947-17.635-4.947c-18.716,0-33.888,15.173-33.888,33.888
	c0,18.716,15.173,33.888,33.888,33.888h154.689c24.66,0,44.651-19.991,44.651-44.651
	C283.497,201.051,263.506,181.059,238.845,181.059z"/>
<path style="fill:#9CE5FF;" d="M70.98,236.473c0-15.095,9.871-27.878,23.509-32.262c-3.26-1.044-6.726-1.626-10.333-1.626
	c-18.716,0-33.888,15.172-33.888,33.888s15.173,33.888,33.888,33.888h20.712C86.153,270.362,70.98,255.19,70.98,236.473z"/>
<polygon style="fill:#FF6465;" points="449.865,81.413 326.078,50.549 449.865,19.686 "/>
<path style="fill:#946C55;" d="M504.231,177.046l-1.326-1.861c-27.645-38.8-77.157-38.8-104.804,0l-108.501,152.28l214.631,173.133
	L504.231,177.046z"/>
<g>
	<path style="fill:#AD7E64;" d="M320.669,327.465l108.501-152.28c10.086-14.155,23.086-23.121,36.867-26.947
		c-23.997-6.664-50.376,2.302-67.935,26.947l-108.501,152.28l173.207,173.133L320.669,327.465z"/>
	<path style="fill:#AD7E64;" d="M349.637,272.532c-27.645-38.8-77.157-38.8-104.804,0L82.333,500.598h421.9L349.637,272.532z"/>
</g>
<g>
	<path style="fill:#C89173;" d="M312.769,245.585c-23.997-6.664-50.376,2.302-67.935,26.947l-162.5,228.066h31.068l162.499-228.066
		C285.986,258.377,298.986,249.411,312.769,245.585z"/>
	<path style="fill:#C89173;" d="M187.481,374.476c-18.587-21.457-51.875-21.457-70.462,0L7.767,500.598h288.967L187.481,374.476z"/>
</g>
<path style="fill:#E0A381;" d="M167.785,361.048c-17.379-6.118-37.701-1.653-50.765,13.429L7.767,500.598h31.068l109.253-126.122
	C153.611,368.1,160.436,363.635,167.785,361.048z"/>
<path d="M511.106,504.209c0.043-0.082,0.074-0.171,0.113-0.255c0.127-0.264,0.245-0.53,0.341-0.804
	c0.045-0.127,0.076-0.26,0.113-0.39c0.07-0.242,0.135-0.486,0.181-0.732c0.026-0.142,0.045-0.285,0.063-0.429
	c0.033-0.253,0.054-0.504,0.062-0.757c0.002-0.083,0.02-0.162,0.02-0.244l-0.001-323.552c0-1.616-0.503-3.192-1.442-4.507
	l-1.327-1.861c-13.106-18.394-31.616-29.764-51.599-31.962V81.413V19.686v-8.285c0-4.289-3.478-7.767-7.767-7.767
	s-7.767,3.478-7.767,7.767v2.216L324.198,43.013c-3.46,0.863-5.888,3.97-5.888,7.536s2.428,6.673,5.888,7.536l117.9,29.397v51.381
	c-19.494,2.532-37.495,13.814-50.322,31.817l-13.393,18.796c-2.49,3.494-1.676,8.344,1.819,10.832
	c3.494,2.49,8.344,1.676,10.832-1.819l13.393-18.796c11.701-16.422,28.496-25.84,46.076-25.84c17.523,0,34.265,9.357,45.961,25.679
	l0.001,295.765l-88.336-130.316l-52.064-76.806c-0.013-0.021-0.028-0.04-0.042-0.061c-0.021-0.029-0.04-0.059-0.061-0.088
	c-0.02-0.027-0.039-0.053-0.059-0.08c-2.279-3.192-4.765-6.235-7.457-9.087c-0.081-0.086-0.158-0.176-0.239-0.261l24.547-34.452
	c2.49-3.494,1.676-8.344-1.819-10.832c-3.494-2.49-8.344-1.676-10.832,1.819l-23.699,33.26
	c-11.723-8.245-25.205-12.728-39.171-12.728c-2.357,0-4.7,0.135-7.022,0.386c0.685-3.398,1.052-6.863,1.052-10.34
	c0-28.904-23.515-52.418-52.418-52.418c-11.757,0-22.992,3.909-32.096,10.973c-11.055-17.867-30.513-28.93-52.13-28.93
	c-5.065,0-10.139,0.633-15.079,1.883c-4.159,1.051-6.678,5.274-5.626,9.433c1.052,4.158,5.272,6.683,9.433,5.626
	c3.697-0.934,7.488-1.408,11.271-1.408c18.987,0,35.744,11.426,42.691,29.108c1.003,2.554,3.28,4.389,5.989,4.827
	c2.71,0.435,5.448-0.586,7.206-2.694c7.039-8.442,17.369-13.285,28.341-13.285c20.338,0,36.884,16.547,36.884,36.884
	c0,5.147-1.028,10.088-3.061,14.726c-3.483,1.393-6.872,3.084-10.148,5.052c-0.03,0.018-0.059,0.036-0.089,0.054
	c-6.575,3.956-11.844,8.666-16.688,14.524c-1.978,2.392-3.928,2.526-6.899,2.526H84.157c-14.403,0-26.121-11.718-26.121-26.122
	c0-14.403,11.718-26.121,26.121-26.121c4.809,0,9.508,1.316,13.588,3.808c2.195,1.34,4.912,1.507,7.254,0.445
	c2.343-1.061,4.008-3.215,4.446-5.75c1.415-8.174,5.059-15.835,10.541-22.157c2.811-3.24,2.462-8.146-0.779-10.957
	c-3.241-2.811-8.146-2.462-10.957,0.779c-5.171,5.962-9.122,12.821-11.667,20.189c-3.999-1.249-8.188-1.892-12.428-1.892
	c-22.969,0-41.655,18.686-41.655,41.655s18.686,41.656,41.655,41.656h147.152l-55.489,77.877c-7.271-3.498-15.306-5.39-23.569-5.39
	c-15.786,0-30.766,6.843-41.102,18.774L1.896,495.512c-1.99,2.298-2.457,5.547-1.194,8.313c1.263,2.765,4.024,4.54,7.065,4.54
	c0,0,288.957,0,288.967,0c0,0,207.491,0,207.499,0c0.034,0,0.068-0.007,0.101-0.007c0.338-0.004,0.672-0.027,1-0.075
	c0.108-0.016,0.215-0.047,0.323-0.067c0.259-0.049,0.516-0.099,0.766-0.174c0.029-0.008,0.058-0.01,0.087-0.02
	c0.088-0.027,0.168-0.071,0.255-0.101c0.256-0.088,0.506-0.184,0.751-0.299c0.134-0.062,0.262-0.132,0.391-0.201
	c0.211-0.114,0.416-0.236,0.616-0.37c0.125-0.083,0.249-0.167,0.369-0.257c0.195-0.146,0.379-0.306,0.56-0.47
	c0.102-0.093,0.207-0.181,0.303-0.279c0.199-0.201,0.38-0.418,0.557-0.642c0.061-0.077,0.129-0.146,0.187-0.226
	C510.718,504.881,510.919,504.569,511.106,504.209z M358.183,50.549l83.915-20.922V71.47L358.183,50.549z M300.283,492.831
	c0,0-53.397-61.641-53.428-61.677c-2.756-3.181-7.779-3.539-10.957-0.785c-3.242,2.809-3.594,7.714-0.785,10.957l44.617,51.506
	H24.772l98.119-113.269c7.383-8.523,18.085-13.411,29.36-13.411c11.103,0,22.087,5.012,29.36,13.411c0,0,33.097,38.206,33.117,38.23
	c2.728,3.149,7.751,3.561,10.957,0.785c3.147-2.726,3.561-7.75,0.785-10.957l-33.116-38.23c-1.359-1.569-2.827-3.067-4.358-4.472
	c-0.091-0.084-0.176-0.175-0.268-0.258l62.432-87.622c6.734-9.452,15.924-17.464,26.707-21.928c0.096-0.039,0.193-0.08,0.289-0.119
	c6.103-2.484,12.536-3.793,19.079-3.793c30.919,0,46.688,26.745,61.983,49.309l130.368,192.323H300.283z"/>
</svg>