<?xml version="1.0" encoding="iso-8859-1"?>
<!-- Uploaded to: SVG Repo, www.svgrepo.com, Generator: SVG Repo Mixer Tools -->
<svg height="800px" width="800px" version="1.1" id="Layer_1" xmlns="http://www.w3.org/2000/svg" xmlns:xlink="http://www.w3.org/1999/xlink" 
	 viewBox="0 0 512 512" xml:space="preserve">
<path style="fill:#946C55;" d="M423.262,503.543c32.557,0,58.949-26.393,58.949-58.949c0-32.557-26.393-58.949-58.949-58.949H88.738
	v117.899h334.524V503.543z"/>
<circle style="fill:#C89173;" cx="88.736" cy="444.59" r="58.95"/>
<circle style="fill:#946C55;" cx="88.736" cy="444.59" r="28.187"/>
<path style="fill:#FFD782;" d="M271.532,350.311c0,0,146.684-5.641,111.708-195.184c0,0-22.83,44.001-53.16,55.283
	c0,0,27.211-125.234-96.895-201.953c0,0,18.052,48.514-32.719,101.541S71.849,267.974,216.262,350.311
	c-2.408-1.373-4.55-6.697-5.787-8.965c-4.313-7.91-7.356-16.532-9.039-25.38c-5.808-30.523,6.001-60.437,24.659-84.31
	c14.31-18.312,12.416-41.549,2.555-61.862C228.65,169.794,365.161,248.77,271.532,350.311z"/>
<path style="fill:#FFE6B3;" d="M223.031,124.665c45.681-47.712,35.648-91.761,33.177-100.115
	c-7.033-5.548-14.675-10.933-23.023-16.093c0,0,18.052,48.514-32.719,101.541c-50.444,52.686-127.613,156.629,13.045,238.722
	C104.388,269.268,175.549,174.257,223.031,124.665z"/>
<path d="M88.738,481.235c20.208,0,36.647-16.441,36.647-36.648c0-20.208-16.441-36.647-36.647-36.647
	c-20.208,0-36.648,16.441-36.648,36.647C52.09,464.796,68.53,481.235,88.738,481.235z M88.738,424.863
	c10.876,0,19.724,8.849,19.724,19.724c0,10.876-8.849,19.725-19.724,19.725c-10.876,0-19.725-8.849-19.725-19.725
	C69.013,433.712,77.862,424.863,88.738,424.863z"/>
<path d="M188.025,424.181c-4.673,0-8.462,3.789-8.462,8.462s3.789,8.462,8.462,8.462h81.251c4.673,0,8.462-3.789,8.462-8.462
	s-3.789-8.462-8.462-8.462H188.025z"/>
<path d="M417.269,481.029c4.673,0,8.462-3.789,8.462-8.462s-3.789-8.462-8.462-8.462h-41.786c-4.673,0-8.462,3.789-8.462,8.462
	s3.789,8.462,8.462,8.462H417.269z"/>
<path d="M212.072,357.657c9.007,5.132,17.63-8.209,9.074-14.268c-24.092-32.441-11.028-77.552,11.616-106.528
	c10.029-12.832,13.863-28.771,11.401-45.778c19.072,15.299,45.79,42.162,50.867,75.595c3.951,26.012-6.048,52.219-29.718,77.89
	c-4.862,5.273-1.017,14.458,6.545,14.193c2.341-0.09,57.742-2.731,94.414-48.552c29.222-36.512,37.731-89.207,25.292-156.621
	c-1.431-7.753-12.191-9.359-15.83-2.368c-0.055,0.105-5.599,10.691-14.589,22.394c-6.818,8.876-13.764,16.013-20.567,21.179
	c0.991-13.702,0.969-34.426-4.127-58.358c-8.291-38.927-32.165-93.979-98.814-135.181c-3.06-1.891-6.971-1.619-9.766,0.645
	c-2.796,2.263-3.845,6.07-2.631,9.456c0.495,1.383,11.824,34.341-16.248,74.953c-2.657,3.845-1.695,9.115,2.149,11.772
	c3.845,2.658,9.115,1.696,11.772-2.149c19.134-27.681,22.504-52.829,21.786-69.549c39.903,29.202,65.116,67.095,75.048,112.873
	c8.413,38.78,2.129,69.065,2.067,69.352c-0.657,3.023,0.388,6.164,2.726,8.19c2.337,2.027,5.594,2.616,8.493,1.538
	c19.039-7.082,34.985-25.09,45.266-39.432c6.039,51.551-2.374,92.038-25.101,120.557c-18.629,23.376-43.491,33.908-60.937,38.624
	c16.754-24.083,23.31-48.881,19.504-73.948c-9.224-60.742-76.036-100.031-78.876-101.674c-3.22-1.863-7.277-1.405-10,1.128
	c-2.724,2.533-3.474,6.547-1.85,9.892c5.692,11.725,13.051,34.194-1.61,52.957c-22.631,28.958-31.972,61.313-26.302,91.102
	c0.596,3.13,1.339,6.21,2.228,9.237c-30.545-22.424-48.138-47.533-52.409-74.895c-5.923-37.948,13.322-81.41,57.199-129.177
	c3.161-3.442,2.935-8.795-0.508-11.956c-3.442-3.162-8.795-2.935-11.956,0.508c-47.537,51.752-68.214,99.942-61.457,143.236
	C132.385,293.977,161.265,328.684,212.072,357.657z"/>
<path d="M88.738,512h334.525c37.171,0,67.411-30.241,67.411-67.412c0-4.631-0.47-9.154-1.364-13.525
	c-0.027-0.141-0.061-0.28-0.095-0.419c-6.442-30.501-33.561-53.467-65.952-53.467h-48.126c-4.673,0-8.462,3.789-8.462,8.462
	s3.789,8.462,8.462,8.462h48.125c20.578,0,38.308,12.381,46.163,30.081H306.541c-4.673,0-8.462,3.789-8.462,8.462
	s3.789,8.462,8.462,8.462h167.075c0.079,1.152,0.133,2.312,0.133,3.483c0,27.839-22.648,50.488-50.487,50.488H133.36
	c4.628-4.098,8.643-8.846,12.024-14.015c0.007-0.011,0.015-0.021,0.021-0.033h193.513c4.673,0,8.462-3.789,8.462-8.462
	s-3.789-8.462-8.462-8.462H153.256c0.055-0.182,0.103-0.367,0.156-0.548c2.839-9.635,3.505-19.912,1.851-29.825
	c-1.539-9.227-4.964-17.93-9.997-25.803c-3.221-5.039-7.151-9.549-11.597-13.541c-0.105-0.094-0.204-0.195-0.309-0.289H341.29
	c4.673,0,8.462-3.789,8.462-8.462s-3.789-8.462-8.462-8.462c0,0-252.531,0-252.552,0c-37.171,0-67.412,30.241-67.412,67.412
	C21.327,481.75,51.556,511.985,88.738,512z M88.738,394.101c27.316,0.133,50.488,23.105,50.488,50.487
	c0,27.511-23.028,50.488-50.488,50.488c-27.839,0-50.488-22.649-50.488-50.488C38.251,416.751,60.896,394.104,88.738,394.101z"/>
</svg>