<?xml version="1.0" encoding="utf-8"?>

<!DOCTYPE svg PUBLIC "-//W3C//DTD SVG 1.0//EN" "http://www.w3.org/TR/2001/REC-SVG-20010904/DTD/svg10.dtd">
<!-- Uploaded to: SVG Repo, www.svgrepo.com, Generator: SVG Repo Mixer Tools -->
<svg version="1.0" id="Layer_1" xmlns="http://www.w3.org/2000/svg" xmlns:xlink="http://www.w3.org/1999/xlink" 
	 width="800px" height="800px" viewBox="0 0 64 64" enable-background="new 0 0 64 64" xml:space="preserve">
<g>
	<path fill="#394240" d="M52,63.999c-1.039,0-2.062-0.406-2.828-1.172L32,45.655L14.828,62.827
		c-1.148,1.145-2.863,1.488-4.359,0.867C8.973,63.077,8,61.616,8,59.999v-56c0-2.211,1.789-4,4-4h40c2.211,0,4,1.789,4,4v56
		c0,1.617-0.973,3.078-2.469,3.695C53.035,63.901,52.516,63.999,52,63.999z M32,35.999c1.023,0,2.047,0.391,2.828,1.172L48,50.343
		V7.999H16v42.344l13.172-13.172C29.953,36.39,30.977,35.999,32,35.999z"/>
	<path fill="#F76D57" d="M32,35.999c1.023,0,2.047,0.391,2.828,1.172L48,50.343V7.999H16v42.344l13.172-13.172
		C29.953,36.39,30.977,35.999,32,35.999z"/>
</g>
</svg>